<mxfile host="app.diagrams.net" modified="2021-09-11T11:36:29.544Z" agent="5.0 (Macintosh; Intel Mac OS X 10_15_7) AppleWebKit/537.36 (KHTML, like Gecko) Chrome/93.0.4577.63 Safari/537.36" etag="c591lKpP_e9YTqkbNkZQ" version="15.1.4" type="github">
  <diagram id="HJjZa8grBo3YLVdh_Uyv" name="Page-1">
    <mxGraphModel dx="946" dy="539" grid="1" gridSize="10" guides="1" tooltips="1" connect="1" arrows="1" fold="1" page="1" pageScale="1" pageWidth="827" pageHeight="1169" math="0" shadow="0">
      <root>
        <mxCell id="0" />
        <mxCell id="1" parent="0" />
        <mxCell id="kIKJPKo65riQWuANHVwu-3" style="edgeStyle=orthogonalEdgeStyle;rounded=0;jumpStyle=arc;orthogonalLoop=1;jettySize=auto;html=1;exitX=0.5;exitY=1;exitDx=0;exitDy=0;entryX=0.5;entryY=0;entryDx=0;entryDy=0;" edge="1" parent="1" source="kIKJPKo65riQWuANHVwu-1" target="kIKJPKo65riQWuANHVwu-2">
          <mxGeometry relative="1" as="geometry" />
        </mxCell>
        <mxCell id="kIKJPKo65riQWuANHVwu-12" value="下发变更" style="edgeLabel;html=1;align=center;verticalAlign=middle;resizable=0;points=[];" vertex="1" connectable="0" parent="kIKJPKo65riQWuANHVwu-3">
          <mxGeometry x="-0.2" y="1" relative="1" as="geometry">
            <mxPoint x="34" as="offset" />
          </mxGeometry>
        </mxCell>
        <mxCell id="kIKJPKo65riQWuANHVwu-1" value="注册中心（Zookeeper）" style="rounded=0;whiteSpace=wrap;html=1;fillColor=#f8cecc;strokeColor=#b85450;" vertex="1" parent="1">
          <mxGeometry x="160" y="80" width="170" height="50" as="geometry" />
        </mxCell>
        <mxCell id="kIKJPKo65riQWuANHVwu-5" style="edgeStyle=orthogonalEdgeStyle;rounded=0;jumpStyle=arc;orthogonalLoop=1;jettySize=auto;html=1;exitX=0.5;exitY=1;exitDx=0;exitDy=0;entryX=0.5;entryY=0;entryDx=0;entryDy=0;" edge="1" parent="1" source="kIKJPKo65riQWuANHVwu-2" target="kIKJPKo65riQWuANHVwu-4">
          <mxGeometry relative="1" as="geometry" />
        </mxCell>
        <mxCell id="kIKJPKo65riQWuANHVwu-2" value="适配器（client-go类库）" style="rounded=0;whiteSpace=wrap;html=1;fillColor=#fad9d5;strokeColor=#ae4132;" vertex="1" parent="1">
          <mxGeometry x="160" y="190" width="170" height="50" as="geometry" />
        </mxCell>
        <mxCell id="kIKJPKo65riQWuANHVwu-8" style="edgeStyle=orthogonalEdgeStyle;rounded=0;jumpStyle=arc;orthogonalLoop=1;jettySize=auto;html=1;exitX=1;exitY=0.5;exitDx=0;exitDy=0;entryX=0;entryY=0.5;entryDx=0;entryDy=0;" edge="1" parent="1" source="kIKJPKo65riQWuANHVwu-4" target="kIKJPKo65riQWuANHVwu-7">
          <mxGeometry relative="1" as="geometry" />
        </mxCell>
        <mxCell id="kIKJPKo65riQWuANHVwu-4" value="kube-apiserver" style="rounded=0;whiteSpace=wrap;html=1;fillColor=#fad9d5;strokeColor=#ae4132;" vertex="1" parent="1">
          <mxGeometry x="160" y="310" width="170" height="50" as="geometry" />
        </mxCell>
        <mxCell id="kIKJPKo65riQWuANHVwu-6" value="ServiceEntry" style="text;html=1;strokeColor=none;fillColor=none;align=center;verticalAlign=middle;whiteSpace=wrap;rounded=0;" vertex="1" parent="1">
          <mxGeometry x="250" y="270" width="80" height="20" as="geometry" />
        </mxCell>
        <mxCell id="kIKJPKo65riQWuANHVwu-10" style="edgeStyle=orthogonalEdgeStyle;rounded=0;jumpStyle=arc;orthogonalLoop=1;jettySize=auto;html=1;exitX=0.5;exitY=1;exitDx=0;exitDy=0;entryX=0.441;entryY=0;entryDx=0;entryDy=0;entryPerimeter=0;" edge="1" parent="1" source="kIKJPKo65riQWuANHVwu-7" target="kIKJPKo65riQWuANHVwu-9">
          <mxGeometry relative="1" as="geometry" />
        </mxCell>
        <mxCell id="kIKJPKo65riQWuANHVwu-7" value="Istiod（Pilot）" style="rounded=0;whiteSpace=wrap;html=1;fillColor=#fad9d5;strokeColor=#ae4132;" vertex="1" parent="1">
          <mxGeometry x="420" y="310" width="170" height="50" as="geometry" />
        </mxCell>
        <mxCell id="kIKJPKo65riQWuANHVwu-9" value="数据面" style="rounded=0;whiteSpace=wrap;html=1;fillColor=#bac8d3;strokeColor=#23445d;" vertex="1" parent="1">
          <mxGeometry x="430" y="450" width="170" height="50" as="geometry" />
        </mxCell>
        <mxCell id="kIKJPKo65riQWuANHVwu-11" value="xDS" style="text;html=1;strokeColor=none;fillColor=none;align=center;verticalAlign=middle;whiteSpace=wrap;rounded=0;" vertex="1" parent="1">
          <mxGeometry x="510" y="390" width="40" height="20" as="geometry" />
        </mxCell>
      </root>
    </mxGraphModel>
  </diagram>
</mxfile>
